<svg xmlns="http://www.w3.org/2000/svg" width="175" height="35" viewBox="0 0 175 35" fill="none"><path d="M16.749 1.55537L19.9912 8.83531C20.7281 10.4898 22.0545 11.5653 23.6019 11.8135L30.8232 13.0544C31.3391 13.0544 31.7812 13.6335 31.6338 14.1298C31.6338 14.378 31.4864 14.7089 31.4127 14.7916L26.2546 20.4998C25.0757 21.7407 24.5598 23.6434 24.7809 25.3806L25.9599 33.4878C26.1073 34.0669 25.7388 34.5633 25.223 34.7287C25.002 34.7287 24.7072 34.7287 24.6335 34.5633L18.2228 30.8406C16.749 30.0133 15.0542 30.0133 13.7278 30.8406L7.24338 34.646C6.72757 34.8942 6.13807 34.8115 5.91701 34.2324C5.76964 33.9842 5.76964 33.8187 5.76964 33.5706L6.94863 25.4634C7.16969 23.7261 6.72757 21.8234 5.47489 20.5825L0.316793 14.8744C-0.0516425 14.4607 -0.0516425 13.7989 0.316793 13.3853C0.464167 13.2198 0.537854 13.1371 0.832602 13.1371L8.05394 11.8962C9.60136 11.648 10.9277 10.5726 11.6646 8.91804L14.9068 1.47264C15.1279 0.893559 15.6437 0.645379 16.0858 0.893559L16.749 1.55537ZM52.4136 1.55537L55.6558 8.83531C56.3927 10.4898 57.719 11.5653 59.2665 11.8135L66.4878 13.0544C67.0036 13.2198 67.2983 13.7162 67.2983 14.2953C67.2983 14.5434 67.151 14.7089 67.0773 14.9571L61.9192 20.6652C60.7402 21.9061 60.2244 23.8088 60.4454 25.5461L61.6244 33.6533C61.7718 34.2324 61.4034 34.7287 60.8876 34.8942C60.6665 34.8942 60.3718 34.8942 60.2981 34.7287L53.8136 30.9233C52.3399 30.0961 50.6451 30.0961 49.3187 30.9233L42.8342 34.7287C42.3184 34.9769 41.7289 34.8942 41.5079 34.3151C41.3605 34.0669 41.3605 33.9015 41.3605 33.6533L42.5395 25.5461C42.7606 23.8088 42.3184 21.9061 41.0658 20.6652L35.9813 14.9571C35.6129 14.5434 35.6129 13.8816 35.9813 13.468C36.1287 13.3026 36.2024 13.2198 36.4972 13.2198L43.7185 11.9789C45.2659 11.7307 46.5923 10.6553 47.3292 9.00077L50.5714 1.55537C51.0135 1.05901 51.603 0.893559 51.9714 1.05901C52.3399 1.14174 52.4136 1.30719 52.4136 1.55537ZM88.2255 1.55537L91.4677 8.83531C92.2046 10.4898 93.5309 11.5653 95.0784 11.8135L102.3 13.0544C102.816 13.2198 103.11 13.7162 103.11 14.2953C103.11 14.5434 102.963 14.7089 102.889 14.9571L97.5837 20.7479C96.4047 21.9888 95.8889 23.8916 96.11 25.6288L97.289 33.736C97.4364 34.3151 97.0679 34.8115 96.5521 34.9769C96.331 34.9769 96.0363 34.9769 95.9626 34.8115L89.4782 31.006C88.0044 30.1788 86.3096 30.1788 84.9832 31.006L78.4988 34.8115C77.983 35.0596 77.3935 34.9769 77.1724 34.3978C77.025 34.1497 77.025 33.9842 77.025 33.736L78.204 25.6288C78.5725 23.8916 78.0567 22.0716 76.8777 20.7479L71.7196 15.1225C71.3511 14.7089 71.3511 14.0471 71.7196 13.6335C71.8669 13.468 72.088 13.3853 72.2354 13.3853L79.4567 12.1444C81.0041 11.8962 82.3305 10.8208 83.0674 9.16622L86.3096 1.72082C86.5307 1.14174 87.1202 1.05901 87.4886 1.14174C88.0044 1.14174 88.1518 1.30719 88.2255 1.55537ZM124.185 1.55537L127.427 8.83531C128.164 10.4898 129.49 11.5653 131.038 11.8135L138.259 13.0544C138.775 13.2198 139.07 13.7162 139.07 14.2953C139.07 14.5434 138.922 14.7089 138.848 14.9571L133.69 20.6652C132.511 21.9061 131.996 23.8088 132.217 25.5461L133.396 33.6533C133.543 34.2324 133.175 34.7287 132.659 34.8942C132.438 34.8942 132.143 34.8942 132.069 34.7287L125.585 30.9233C124.111 30.0961 122.416 30.0961 121.09 30.9233L114.679 34.7287C114.163 34.9769 113.574 34.8942 113.353 34.3151C113.205 34.0669 113.205 33.9015 113.205 33.6533L114.384 25.5461C114.605 23.8088 114.163 21.9061 112.911 20.6652L107.605 14.9571C107.237 14.5434 107.237 13.8816 107.605 13.468C107.753 13.3026 107.974 13.2198 108.121 13.2198L115.342 11.9789C116.89 11.7307 118.216 10.6553 118.953 9.00077L122.195 1.55537C122.416 0.976285 123.006 0.893559 123.374 0.976285C123.816 1.14174 123.964 1.30719 124.185 1.55537ZM159.849 1.55537L163.092 8.83531C163.828 10.4898 165.155 11.5653 166.702 11.8135L173.924 13.0544C174.439 13.2198 174.734 13.7162 174.734 14.2953C174.734 14.5434 174.587 14.7089 174.513 14.9571L169.355 20.6652C168.176 21.9061 167.66 23.8088 167.881 25.5461L169.06 33.6533C169.208 34.2324 168.839 34.7287 168.323 34.8942C168.102 34.8942 167.808 34.8942 167.734 34.7287L161.249 30.9233C159.776 30.0961 158.081 30.0961 156.754 30.9233L150.27 34.7287C149.754 34.9769 149.165 34.8942 148.944 34.3151C148.796 34.0669 148.796 33.9015 148.796 33.6533L149.975 25.5461C150.196 23.8088 149.754 21.9061 148.501 20.6652L143.343 14.9571C142.975 14.5434 142.975 13.8816 143.343 13.468C143.491 13.3026 143.712 13.2198 143.859 13.2198L151.081 11.9789C152.628 11.7307 153.954 10.6553 154.691 9.00077L157.933 1.55537C158.155 0.976285 158.67 0.728105 159.112 0.976285C159.628 1.14174 159.776 1.30719 159.849 1.55537Z" fill="#FCAF17"></path></svg>